<?xml version="1.0" encoding="UTF-8" standalone="no"?>
<!-- Created with Inkscape (http://www.inkscape.org/) -->

<svg
   xmlns:dc="http://purl.org/dc/elements/1.1/"
   xmlns:cc="http://creativecommons.org/ns#"
   xmlns:rdf="http://www.w3.org/1999/02/22-rdf-syntax-ns#"
   xmlns:svg="http://www.w3.org/2000/svg"
   xmlns="http://www.w3.org/2000/svg"
   xmlns:sodipodi="http://sodipodi.sourceforge.net/DTD/sodipodi-0.dtd"
   xmlns:inkscape="http://www.inkscape.org/namespaces/inkscape"
   width="744.09448819"
   height="1052.3622047"
   id="svg2"
   version="1.1"
   inkscape:version="0.48.4 r9939"
   sodipodi:docname="New document 1">
  <defs
     id="defs4" />
  <sodipodi:namedview
     id="base"
     pagecolor="#ffffff"
     bordercolor="#666666"
     borderopacity="1.0"
     inkscape:pageopacity="0.0"
     inkscape:pageshadow="2"
     inkscape:zoom="2.8"
     inkscape:cx="312.14286"
     inkscape:cy="524.20407"
     inkscape:document-units="px"
     inkscape:current-layer="layer1"
     showgrid="false"
     inkscape:window-width="1366"
     inkscape:window-height="744"
     inkscape:window-x="0"
     inkscape:window-y="24"
     inkscape:window-maximized="1" />
  <metadata
     id="metadata7">
    <rdf:RDF>
      <cc:Work
         rdf:about="">
        <dc:format>image/svg+xml</dc:format>
        <dc:type
           rdf:resource="http://purl.org/dc/dcmitype/StillImage" />
        <dc:title></dc:title>
      </cc:Work>
    </rdf:RDF>
  </metadata>
  <g
     inkscape:label="Layer 1"
     inkscape:groupmode="layer"
     id="layer1">
    <path
       style="fill:#e5e5e5;fill-opacity:1"
       d="m 303.44563,597.09399 -13.74187,-13.76822 7.7774,-7.73178 c 4.27756,-4.25248 8.23861,-7.73178 8.80232,-7.73178 0.56371,0 2.78258,1.8 4.93082,4 l 3.9059,4 -3.8021,3.8937 -3.80209,3.8937 5.16682,5.27671 5.16683,5.27672 5.16942,-5.16942 5.16942,-5.16942 -13.45914,-13.4869 -13.45914,-13.4869 4.44592,-4.53006 4.44591,-4.53006 17.77486,17.75429 17.77487,17.75428 -13.73534,13.76168 c -7.55444,7.56892 -13.9724,13.76168 -14.26214,13.76168 -0.28974,0 -6.71064,-6.1957 -14.26867,-13.76822 z m 42.78057,-31.21981 -7.94118,-7.98803 3.91759,-4.01197 c 2.15467,-2.20658 4.36979,-4.01197 4.92248,-4.01197 0.55268,0 2.61775,1.57492 4.58902,3.49982 l 3.58414,3.49981 4.43006,-4.51391 4.43007,-4.51391 -13.45774,-13.4855 -13.45774,-13.4855 4.24129,-4.24129 4.24129,-4.24129 17.73543,17.73542 17.73543,17.73543 -12.97659,13.00546 c -7.13713,7.153 -13.21864,13.00546 -13.51448,13.00546 -0.29584,0 -4.11142,-3.59461 -8.47907,-7.98803 z m -80.77987,-6.7795 -13.74118,-13.76752 8.28604,-8.243 8.28604,-8.243 4.44737,4.53154 4.44737,4.53154 -3.72884,3.31738 c -2.05085,1.82455 -3.72883,3.73877 -3.72883,4.25381 0,1.09707 8.61538,9.38678 9.75554,9.38678 0.42665,0 6.16166,-5.4 12.74446,-12 6.58281,-6.6 12.48591,-12 13.11801,-12 0.63209,0 2.81999,1.84929 4.86198,4.10953 l 3.71272,4.10953 -16.83122,16.89047 c -9.25716,9.28976 -17.06905,16.89047 -17.35975,16.89047 -0.29069,0 -6.71206,-6.19539 -14.26971,-13.76753 z m 59.26274,-1.7378 -4.44683,-4.53099 10.72236,-10.72235 10.72236,-10.72236 4.50562,4.50562 4.50562,4.50563 -10.78115,10.74772 -10.78115,10.74772 z m -12.48035,-25.48021 -11.95678,-11.98802 4.41493,-4.49849 4.41494,-4.4985 11.97733,12.05104 11.97732,12.05103 -4.43547,4.43548 -4.43548,4.43548 z m -42.77808,-6.77781 -17.74009,-17.76065 13.30749,-13.2801 13.30749,-13.2801 8.40459,8.04008 8.40459,8.04009 -4.42034,4.504 -4.42035,4.50401 -4.07972,-4.00394 -4.07972,-4.00394 -4.37666,4.45949 -4.37665,4.45949 3.95912,4.29248 c 2.17751,2.36086 8.21494,8.43408 13.41651,13.49604 l 9.4574,9.20357 -4.51179,4.54506 -4.51178,4.54507 z m 91.51366,-3.33856 c -2.3375,-2.22663 -4.25,-4.33312 -4.25,-4.68108 0,-0.34795 1.57398,-2.24454 3.49772,-4.21464 l 3.49773,-3.58199 -5.00941,-4.93409 -5.00941,-4.93408 -12.76631,12.73797 -12.76631,12.73798 -4.44912,-4.53333 -4.44912,-4.53332 17.18002,-17.18001 17.18001,-17.18001 13.5471,13.83208 c 7.4509,7.60765 13.5471,14.12038 13.5471,14.47274 0,0.35236 -3.4875,4.10555 -7.75,8.34044 l -7.75,7.69978 z m -74.77037,-2.91892 -3.92627,-4.02086 10.70516,-10.70516 10.70517,-10.70517 4.5294,4.44528 4.52941,4.44528 -10.3934,10.28075 c -5.71638,5.65441 -10.80512,10.28075 -11.30831,10.28075 -0.50319,0 -2.68172,-1.80939 -4.84116,-4.02087 z m 20.97051,-27.81768 c -8.77258,-8.72417 -16.72366,-16.73696 -17.66907,-17.8062 -1.66116,-1.87873 -1.25374,-2.40836 12.12222,-15.75873 l 13.84115,-13.81465 13.62778,13.57272 c 7.49528,7.465 13.62778,13.93713 13.62778,14.38253 0,0.44539 -3.52233,4.31147 -7.8274,8.59129 l -7.8274,7.7815 -4.1726,-4.17261 c -2.29493,-2.29492 -4.1726,-4.48138 -4.1726,-4.85878 0,-0.3774 1.58008,-2.21766 3.5113,-4.08947 l 3.51129,-3.40328 -5.22704,-5.29279 -5.22704,-5.29279 -4.78426,4.71231 c -2.63134,2.59178 -4.78425,5.1732 -4.78425,5.7365 0,0.5633 5.85644,6.89271 13.01431,14.06534 l 13.01431,13.04115 -4.31417,4.23405 -4.31418,4.23404 z"
       id="path2996"
       inkscape:connector-curvature="0"
       sodipodi:nodetypes="scssscccccccccccccsssscssscccccccccsssscccccsssssscsssccccccccccccccccccccccccccccccssccccssscccccccccssscsscccccsssssscssscssscccssscccs"
       inkscape:export-filename="/home/doo/Projects/mine/android/MeditationTracker2/MeditationTracker2/res/drawable/infinite knot.png"
       inkscape:export-xdpi="136.96001"
       inkscape:export-ydpi="136.96001" />
  </g>
</svg>
